<svg width="80" height="80" viewBox="0 0 80 80" fill="none" xmlns="http://www.w3.org/2000/svg">
<g clip-path="url(#clip0_21_77)">
<path d="M26.2526 14.825C26.9188 16.0839 27.3084 17.4708 27.3951 18.8926C28.2521 18.6864 29.1302 18.5799 30.0117 18.5755H30.0217C32.8833 18.5805 35.6377 19.6654 37.7341 21.6134C40.3277 18.6447 41.9414 14.9476 42.3544 11.0273C42.6751 8.50663 41.8186 5.97863 40.0321 4.17171C38.6651 2.80001 37.0227 1.73401 35.2133 1.04386C32.061 -0.402361 28.4214 -0.332377 25.327 1.23382C23.6858 1.92459 22.3925 3.24787 21.7393 4.90435C20.9719 6.58193 21.347 8.56115 22.6748 9.84178C24.1412 11.2882 25.3511 12.9732 26.2526 14.825Z" fill="#F2B800"/>
<path d="M4.91161 38.2566C6.58777 39.0328 8.57168 38.6613 9.85325 37.331C11.2929 35.8614 12.977 34.6531 14.8307 33.7605C16.0871 33.0833 17.4763 32.6888 18.9011 32.605C18.0144 28.9204 19.0389 25.0367 21.6277 22.2688C18.6565 19.6696 14.9514 18.0571 11.0244 17.6541C8.50388 17.3154 5.96933 18.1702 4.16881 19.9664C2.7982 21.3378 1.73361 22.9841 1.04533 24.7966C-0.408541 27.9478 -0.342932 31.5905 1.22389 34.6871C1.91966 36.3272 3.25013 37.6149 4.91161 38.2566Z" fill="#F2B800"/>
<path d="M22.3677 33.8464C23.812 36.7307 26.7558 38.5575 29.9816 38.571H29.9988C31.3129 38.5712 32.6092 38.2677 33.7865 37.6841L33.8293 37.6627C37.3891 35.8943 39.2638 31.9086 38.3559 28.0388C37.448 24.1691 33.9965 21.4329 30.0216 21.4321H30.0116C28.6993 21.4334 27.4049 21.7378 26.2297 22.3219C26.2057 22.3352 26.1808 22.3472 26.1555 22.3577C21.9498 24.4617 20.2422 29.5743 22.3392 33.7836C22.3506 33.8106 22.3606 33.8278 22.3677 33.8464ZM30.0116 24.2886C33.1668 24.2886 35.7245 26.8465 35.7245 30.0015C35.7245 33.1565 33.1667 35.7144 30.0116 35.7144H30.0002C26.845 35.7113 24.2899 33.1509 24.293 29.9957C24.2961 26.8405 26.8564 24.2855 30.0116 24.2886Z" fill="#F2B800"/>
<path d="M29.9986 32.8578C31.5761 32.8614 32.8579 31.5853 32.8615 30.0077C32.8651 28.4301 31.589 27.1484 30.0114 27.1448C28.4338 27.1412 27.152 28.4173 27.1484 29.9949C27.1449 31.5725 28.421 32.8542 29.9986 32.8578Z" fill="#F2B800"/>
<path d="M41.4373 30.0013C41.4413 32.8612 40.3627 35.6167 38.418 37.7137C40.6613 39.6107 43.2578 41.0455 46.0576 41.9355C49.4744 39.2771 53.58 37.6507 57.8906 37.248C60.3314 33.1176 60.6499 29.1071 58.7861 25.3166C58.0963 23.6792 56.7725 22.391 55.117 21.746C53.4436 20.9648 51.4586 21.3352 50.1796 22.6672C48.7387 24.1372 47.053 25.3455 45.1979 26.2378C43.9406 26.9142 42.5512 27.3089 41.1261 27.3947C41.3301 28.2487 41.4346 29.1234 41.4373 30.0013Z" fill="#F2B800"/>
<path d="M40.1164 57.9305V57.9604C40.045 58.6303 40.0093 59.3087 40.0093 59.9942C40.0076 70.836 48.6465 79.7039 59.4845 79.9859C70.3226 80.2678 79.4109 71.8609 79.9728 61.0338C80.5347 50.2067 72.3657 40.904 61.5565 40.0625C50.7477 39.2208 41.2371 47.1468 40.1164 57.9305ZM50.6125 56.6836C51.4981 55.541 52.4593 54.4283 53.3891 53.3558C53.9232 52.7387 54.4574 52.1218 54.9801 51.499C56.2803 50.1303 57.1787 48.4299 57.5767 46.5844C57.6557 46.0561 57.7073 45.5242 57.7309 44.9905C57.748 44.7148 57.7666 44.4393 57.7894 44.1636C57.8722 43.4133 58.5101 42.8478 59.2649 42.8553C59.6693 42.8718 60.0478 43.0593 60.306 43.3709C60.3674 43.4337 60.4732 43.5323 60.6146 43.668C63.7074 46.5481 66.4843 49.7497 68.8984 53.2186C71.2381 56.6151 72.4718 60.6515 72.4304 64.7759C72.353 71.0859 67.6954 76.4016 61.4501 77.3071C61.0053 77.3632 60.5574 77.3913 60.1091 77.3913C58.2856 77.374 56.4885 76.9525 54.8475 76.1574C50.8537 74.3848 48.1395 70.5814 47.762 66.2283C47.3516 62.7896 48.3835 59.3343 50.6125 56.6836Z" fill="#F2B800"/>
<path d="M19.9755 55.8366C21.3464 57.2075 22.9921 58.2726 24.8043 58.9616C29.0127 60.8326 33.9262 60.0726 37.3727 57.0179C37.615 55.1536 38.088 53.3267 38.781 51.5791C36.706 49.7961 35.0038 47.6207 33.7722 45.1778C33.0969 43.9236 32.7021 42.5377 32.6153 41.116C31.7589 41.3199 30.8819 41.4244 30.0017 41.4273H29.9789C27.1189 41.4201 24.3675 40.3318 22.2765 38.3809C19.6841 41.352 18.0737 45.0521 17.6662 48.9741C17.3439 51.4945 18.1949 54.0237 19.9755 55.8366Z" fill="#F2B800"/>
<path d="M52.6587 70.9661C52.4447 69.2715 52.6695 67.5502 53.3114 65.9673C54.781 62.041 59.4527 56.868 60.8654 56.6837C61.3223 56.6251 61.7794 56.7905 62.0929 57.1279C62.4064 57.4654 62.5381 57.9332 62.4464 58.3847C62.0979 60.0985 62.6563 61.5367 64.4459 63.4935C64.8803 63.9771 65.2893 64.4829 65.6714 65.0089C66.9566 66.6446 67.5841 68.7015 67.431 70.7761C68.7771 69.0412 69.5283 66.9188 69.5733 64.7233C69.6145 61.1764 68.5437 57.7056 66.5112 54.7985C64.6857 52.1388 62.6146 49.6561 60.3255 47.3831C59.7934 49.6005 58.7074 51.6467 57.169 53.3302C56.6392 53.9659 56.0935 54.5957 55.548 55.2256C54.644 56.2696 53.7084 57.3493 52.8644 58.4406C49.8442 62.0424 49.7584 67.267 52.6587 70.9661Z" fill="#F2B800"/>
<path d="M62.3295 65.4217C61.1583 64.2405 60.278 62.8029 59.7587 61.2227C58.1751 62.9077 56.8971 64.8559 55.9825 66.9799C55.449 68.2171 55.2867 69.5827 55.5154 70.9104C55.834 72.5081 56.9669 73.822 58.5005 74.3724C59.3517 74.5408 60.2238 74.575 61.0856 74.4737C61.2884 74.448 61.4869 74.4066 61.6855 74.3666C63.2072 73.8161 64.3074 72.4794 64.5548 70.8802C64.7499 69.3874 64.3199 67.8805 63.3665 66.7154C63.0427 66.2672 62.6966 65.8353 62.3295 65.4217Z" fill="#F2B800"/>
</g>
<defs>
<clipPath id="clip0_21_77">
<rect width="80" height="80" fill="white"/>
</clipPath>
</defs>
</svg>
