<svg width="80" height="80" viewBox="0 0 80 80" fill="none" xmlns="http://www.w3.org/2000/svg">
<path d="M79.9964 39.9843C80.1096 44.658 79.1878 49.2988 77.2968 53.5744C75.4059 57.85 72.5927 61.6544 69.0588 64.7151C68.4747 65.1977 67.7234 65.4296 66.9689 65.36C66.2145 65.2904 65.5182 64.9251 65.0322 64.3439C64.5526 63.7586 64.3227 63.008 64.3922 62.2545C64.4617 61.501 64.8249 60.8051 65.4034 60.3173C68.3143 57.8114 70.624 54.6827 72.1615 51.163C73.6989 47.6432 74.4246 43.8226 74.2849 39.9843C74.4222 33.9485 72.5206 28.0427 68.8875 23.221L72.9426 19.1658C77.6142 25.0897 80.1049 32.4408 79.9964 39.9843ZM64.5182 27.5903L60.4344 31.674C62.0309 34.1507 62.8741 37.0376 62.8618 39.9843C62.8755 41.9828 62.4911 43.964 61.7311 45.8125C60.9712 47.6609 59.8508 49.3395 58.4354 50.7505C58.165 51.009 57.9483 51.3184 57.7976 51.6608C57.647 52.0032 57.5653 52.372 57.5574 52.746C57.5494 53.12 57.6153 53.492 57.7513 53.8405C57.8872 54.189 58.0906 54.5073 58.3497 54.7771C58.6137 55.0575 58.9323 55.2807 59.286 55.433C59.6397 55.5852 60.0208 55.6633 60.4059 55.6624C60.7708 55.6658 61.1329 55.597 61.4711 55.4597C61.8093 55.3225 62.117 55.1196 62.3763 54.8628C65.9398 51.3265 68.1159 46.6289 68.5089 41.624C68.902 36.6192 67.4859 31.6394 64.5182 27.5903ZM79.1596 0.840367C78.6241 0.304908 77.8978 0.00409697 77.1405 0.00409697C76.3832 0.00409697 75.6569 0.304908 75.1213 0.840367L51.4388 24.5229V2.85939C51.4412 2.34584 51.3047 1.8412 51.0436 1.39897C50.7825 0.956734 50.4066 0.593398 49.9557 0.347481C49.5049 0.101564 48.9959 -0.0177674 48.4827 0.00213914C47.9696 0.0220457 47.4713 0.180448 47.0409 0.460552L20.0254 17.6522V55.9363L0.87183 75.0901C0.599076 75.3536 0.381518 75.6687 0.23185 76.0171C0.0821827 76.3655 0.00340285 76.7402 0.000107824 77.1194C-0.0031872 77.4986 0.0690685 77.8746 0.212659 78.2256C0.356249 78.5766 0.568298 78.8954 0.836433 79.1636C1.10457 79.4317 1.42342 79.6437 1.77438 79.7873C2.12534 79.9309 2.50139 80.0032 2.88058 79.9999C3.25976 79.9966 3.63449 79.9178 3.98291 79.7681C4.33132 79.6185 4.64644 79.4009 4.90987 79.1282L79.1596 4.87841C79.695 4.34288 79.9958 3.61664 79.9958 2.85939C79.9958 2.10214 79.695 1.3759 79.1596 0.840367ZM47.0409 79.508C47.4985 79.8092 48.0351 79.9682 48.583 79.9649C49.0614 79.9666 49.5325 79.8488 49.9538 79.6222C50.401 79.3715 50.7739 79.007 51.0347 78.5657C51.2955 78.1243 51.4349 77.6218 51.4388 77.1091V40.6697L25.994 66.1145L47.0409 79.508ZM14.3139 19.9939H11.4581C8.42955 19.9972 5.52595 21.2017 3.38441 23.3433C1.24288 25.4848 0.0383426 28.3884 0.0350921 31.417V48.5515C0.0383426 51.5801 1.24288 54.4837 3.38441 56.6253C5.52595 58.7668 8.42955 59.9713 11.4581 59.9746H14.3139V19.9939Z" fill="#F2B800"/>
</svg>
