<svg width="80" height="80" viewBox="0 0 80 80" fill="none" xmlns="http://www.w3.org/2000/svg">
<g clip-path="url(#clip0_21_22)">
<path d="M51.8857 50.0001L77.2351 24.6521C77.2973 24.874 77.3304 25.103 77.3337 25.3334V74.6668C77.3304 74.8972 77.2973 75.1262 77.2351 75.3481L51.8857 50.0001Z" fill="#F2B800"/>
<path d="M74.667 22.6667C74.8975 22.6699 75.1266 22.7035 75.3484 22.7667L50.0003 48.1147L24.6523 22.7667C24.874 22.7035 25.1031 22.6699 25.3337 22.6667H74.667Z" fill="#F2B800"/>
<path d="M22.7657 75.3481C22.7035 75.1262 22.6703 74.8972 22.667 74.6668V25.3334C22.6703 25.103 22.7035 24.874 22.7657 24.6521L48.115 50.0001L22.7657 75.3481Z" fill="#F2B800"/>
<path d="M25.3337 77.3333C25.1031 77.3301 24.874 77.2965 24.6523 77.2333L50.0003 51.8853L75.3484 77.2333C75.1266 77.2965 74.8975 77.3301 74.667 77.3333H25.3337Z" fill="#F2B800"/>
<path d="M14.6667 20H1.33333C0.596954 20 0 20.597 0 21.3333C0 22.0697 0.596954 22.6667 1.33333 22.6667H14.6667C15.403 22.6667 16 22.0697 16 21.3333C16 20.597 15.403 20 14.6667 20Z" fill="#F2B800"/>
<path d="M1.33333 80.0002H14.6667C15.403 80.0002 16 79.4032 16 78.6668C16 77.9304 15.403 77.3335 14.6667 77.3335H1.33333C0.596954 77.3335 0 77.9304 0 78.6668C0 79.4032 0.596954 80.0002 1.33333 80.0002Z" fill="#F2B800"/>
<path d="M13.6415 35.5199C14.1128 36.0862 14.9539 36.1632 15.5202 35.6919C16.0865 35.2207 16.1635 34.3796 15.6922 33.8133L9.02552 25.8133C8.7722 25.5085 8.39646 25.3323 8.00019 25.3323C7.60391 25.3323 7.22817 25.5085 6.97485 25.8133L0.308186 33.8133C-0.163097 34.3796 -0.0860898 35.2207 0.480186 35.6919C1.04646 36.1632 1.88757 36.0862 2.35885 35.5199L6.66685 30.3493V69.6506L2.35885 64.4799C1.88757 63.9137 1.04646 63.8367 0.480186 64.3079C-0.0860898 64.7792 -0.163097 65.6203 0.308186 66.1866L6.97485 74.1866C7.23022 74.4879 7.6052 74.6617 8.00019 74.6617C8.39517 74.6617 8.77016 74.4879 9.02552 74.1866L15.6922 66.1866C16.1635 65.6203 16.0865 64.7792 15.5202 64.3079C14.9539 63.8367 14.1128 63.9137 13.6415 64.4799L9.33352 69.6506V30.3493L13.6415 35.5199Z" fill="#F2B800"/>
<path d="M78.6668 0C77.9304 0 77.3335 0.596954 77.3335 1.33333V14.6667C77.3335 15.403 77.9304 16 78.6668 16C79.4032 16 80.0002 15.403 80.0002 14.6667V1.33333C80.0002 0.596954 79.4032 0 78.6668 0Z" fill="#F2B800"/>
<path d="M22.6667 14.6667V1.33333C22.6667 0.596954 22.0697 0 21.3333 0C20.597 0 20 0.596954 20 1.33333V14.6667C20 15.403 20.597 16 21.3333 16C22.0697 16 22.6667 15.403 22.6667 14.6667Z" fill="#F2B800"/>
<path d="M35.6922 0.480043C35.4657 0.20776 35.1403 0.0367488 34.7876 0.00473163C34.4349 -0.0272856 34.0839 0.0823219 33.8122 0.309376L25.8122 6.97604C25.5285 7.24428 25.3574 7.61034 25.3335 8.00004C25.3588 8.38938 25.5297 8.75494 25.8122 9.02404L33.8122 15.6907C34.178 15.9961 34.679 16.083 35.1263 15.9189C35.5737 15.7547 35.8995 15.3644 35.981 14.8949C36.0625 14.4254 35.8873 13.9481 35.5215 13.6427L30.3495 9.33338H69.6508L64.4788 13.6427C64.113 13.9481 63.9378 14.4254 64.0194 14.8949C64.1009 15.3644 64.4267 15.7547 64.874 15.9189C65.3214 16.083 65.8223 15.9961 66.1882 15.6907L74.1882 9.02404C74.4711 8.75525 74.6421 8.38951 74.6668 8.00004C74.6605 7.6061 74.4863 7.23359 74.1882 6.97604L66.1882 0.309376C65.6226 -0.162643 64.7815 -0.0868299 64.3095 0.47871C63.8375 1.04425 63.9133 1.88536 64.4788 2.35738L69.6508 6.66671H30.3495L35.5215 2.35738C36.0868 1.88599 36.1632 1.04565 35.6922 0.480043Z" fill="#F2B800"/>
</g>
<defs>
<clipPath id="clip0_21_22">
<rect width="80" height="80" fill="white"/>
</clipPath>
</defs>
</svg>
