<svg width="20" height="20" viewBox="0 0 20 20" fill="none" xmlns="http://www.w3.org/2000/svg">
<path fill-rule="evenodd" clip-rule="evenodd" d="M8.67001 18.6699C3.88764 18.6699 0 14.7823 0 9.99989C0 5.21752 3.88764 1.32983 8.67001 1.32983C10.863 1.32983 12.921 2.12634 14.5243 3.59608C13.991 3.91143 13.4764 4.26073 12.9814 4.63882C11.7665 3.65873 10.2559 3.11912 8.67001 3.11912C4.87991 3.11912 1.78928 6.20978 1.78928 9.99989C1.78928 13.79 4.87991 16.8807 8.67001 16.8807C13.9436 16.8807 17.0745 11.2436 14.8063 6.86073C15.1501 6.54105 15.5039 6.23119 15.8671 5.93167C15.9743 5.84323 16.0825 5.75561 16.1914 5.66888C16.9502 6.9794 17.3402 8.46528 17.3402 9.99984C17.3401 14.7823 13.4524 18.6699 8.67001 18.6699Z" fill="#727A63"/>
<path fill-rule="evenodd" clip-rule="evenodd" d="M8.89767 14.457C8.80009 14.457 8.71875 14.392 8.68623 14.3106C8.66999 14.2781 7.27102 10.6669 5.10757 9.30052C4.68463 9.04026 4.35936 8.76372 4.48947 8.14557C4.61958 7.54372 5.02627 7.20212 5.75824 7.03944C7.05953 6.7629 8.45845 8.77996 8.97901 9.60959C10.8008 6.95815 14.4445 2.79387 19.7474 2.30588C20.0033 2.27589 20.0978 2.65509 19.8613 2.76135C19.78 2.79387 12.1997 6.25871 9.12536 14.3269C9.07659 14.4082 8.99525 14.457 8.89767 14.457Z" fill="#727A63"/>
</svg>
