<svg width="32" height="32" viewBox="0 0 32 32" fill="none" xmlns="http://www.w3.org/2000/svg">
<path d="M4.8886 4.8885C5.27912 4.49798 5.91229 4.49798 6.30281 4.8885L27.0446 25.6303C27.4351 26.0208 27.4351 26.654 27.0446 27.0445C26.6541 27.4351 26.0209 27.4351 25.6304 27.0445L4.8886 6.30272C4.49807 5.91219 4.49807 5.27903 4.8886 4.8885Z" fill="white"/>
<path d="M27.0448 4.88847C27.4354 5.279 27.4354 5.91216 27.0448 6.30269L6.30304 27.0445C5.91251 27.435 5.27935 27.435 4.88882 27.0445C4.4983 26.654 4.4983 26.0208 4.88882 25.6303L25.6306 4.88847C26.0212 4.49795 26.6543 4.49795 27.0448 4.88847Z" fill="white"/>
</svg>
