<svg width="253" height="46" viewBox="0 0 253 46" fill="none" xmlns="http://www.w3.org/2000/svg">
<g clip-path="url(#clip0_227_133)">
<path d="M170.08 0.637695H168.607V45.3624H170.08V0.637695Z" fill="#929292"/>
<path d="M191.055 2.00403H188.154V0.637695H195.384V2.00403H192.483V10.703H191.011V2.00403H191.055Z" fill="#929292"/>
<path d="M196.634 0.637695H198.151V4.87334H202.703V0.637695H204.221V10.7486H202.703V6.28522H198.151V10.7486H196.634V0.637695Z" fill="#929292"/>
<path d="M206.452 0.637695H212.388V2.00403H207.925V4.91888H212.075V6.23968H207.925V9.33671H212.522V10.703H206.452V0.637695Z" fill="#929292"/>
<path d="M214.083 0.637695H217.654C218.189 0.637695 218.68 0.728784 219.082 0.865418C219.483 1.00205 219.84 1.22977 220.153 1.4575C220.465 1.73076 220.688 2.04958 220.822 2.41393C220.956 2.77829 221.045 3.18819 221.045 3.68918V3.82581C221.045 4.50898 220.867 5.05552 220.555 5.55651C220.242 6.01195 219.796 6.37631 219.171 6.64958L221.715 10.7486H219.885L217.698 6.96839H215.512V10.7486H213.994V0.637695H214.083ZM217.564 5.6476C218.234 5.6476 218.769 5.51096 219.082 5.19215C219.439 4.87334 219.573 4.46344 219.573 3.9169V3.73472C219.573 3.18819 219.394 2.73274 219.037 2.45948C218.68 2.14067 218.189 2.00403 217.52 2.00403H215.556V5.6476H217.564Z" fill="#929292"/>
<path d="M223.099 0.637695H225.285L228.008 7.33275H228.097L230.819 0.637695H233.006V10.7486H231.533V2.55057H231.444L228.677 9.33671H227.472L224.705 2.55057H224.616V10.7486H223.143V0.637695H223.099Z" fill="#929292"/>
<path d="M234.657 5.64765C234.657 4.91893 234.791 4.23576 235.014 3.59814C235.237 2.96052 235.594 2.41398 235.996 1.95854C236.442 1.50309 236.933 1.13873 237.513 0.865467C238.094 0.5922 238.763 0.455566 239.433 0.455566H239.522C240.236 0.455566 240.861 0.5922 241.441 0.819923C242.021 1.09319 242.512 1.412 242.958 1.91299C243.404 2.36844 243.717 2.91497 243.94 3.5526C244.163 4.19022 244.297 4.87339 244.297 5.6021V5.69319C244.297 6.4219 244.163 7.10507 243.94 7.7427C243.717 8.38032 243.36 8.92685 242.958 9.3823C242.512 9.83774 242.021 10.2021 241.441 10.4298C240.861 10.7031 240.191 10.7942 239.522 10.7942H239.433C238.763 10.7942 238.138 10.6575 237.513 10.4298C236.889 10.2021 236.398 9.83774 235.996 9.33675C235.594 8.88131 235.237 8.33477 235.014 7.69715C234.791 7.05953 234.657 6.37636 234.657 5.64765ZM236.487 7.2417C236.666 7.69715 236.889 8.10705 237.156 8.42586C237.424 8.74468 237.781 9.01794 238.183 9.20012C238.585 9.3823 239.031 9.47339 239.522 9.47339H239.566C240.057 9.47339 240.459 9.3823 240.861 9.20012C241.262 9.01794 241.619 8.74468 241.887 8.42586C242.155 8.10705 242.378 7.69715 242.557 7.2417C242.735 6.78626 242.78 6.28527 242.78 5.73874V5.64765C242.78 5.10111 242.69 4.60012 242.557 4.14468C242.423 3.68923 242.199 3.27933 241.887 2.96052C241.575 2.64171 241.262 2.36844 240.861 2.18626C240.459 2.00408 240.013 1.91299 239.522 1.91299H239.477C238.986 1.91299 238.54 2.00408 238.138 2.18626C237.737 2.36844 237.38 2.64171 237.112 2.96052C236.844 3.27933 236.621 3.68923 236.442 4.14468C236.264 4.60012 236.219 5.10111 236.219 5.64765V5.73874C236.219 6.28527 236.309 6.78626 236.487 7.2417Z" fill="#929292"/>
<path d="M189.315 17.9448H192.706C193.242 17.9448 193.733 18.0359 194.135 18.1725C194.581 18.3092 194.938 18.5369 195.25 18.8102C195.563 19.0834 195.786 19.4478 195.964 19.8122C196.143 20.2221 196.232 20.6775 196.232 21.1329V21.224C196.232 21.725 196.143 22.1805 195.964 22.5448C195.786 22.9547 195.563 23.2735 195.25 23.5923C194.938 23.8656 194.581 24.0933 194.135 24.2755C193.688 24.4121 193.242 24.5032 192.706 24.5032H190.787V28.0102H189.27V17.9448H189.315ZM192.617 23.228C192.93 23.228 193.242 23.1824 193.465 23.0914C193.733 23.0003 193.911 22.8636 194.09 22.727C194.268 22.5448 194.402 22.3626 194.492 22.0894C194.581 21.8617 194.625 21.5884 194.625 21.3151V21.224C194.625 20.9508 194.581 20.6775 194.492 20.4498C194.402 20.2221 194.268 19.9943 194.09 19.8577C193.911 19.7211 193.688 19.5844 193.465 19.4933C193.197 19.4022 192.93 19.3567 192.617 19.3567H190.743V23.228H192.617Z" fill="#929292"/>
<path d="M197.616 17.9448H201.186C201.722 17.9448 202.212 18.0359 202.614 18.1725C203.016 18.3092 203.373 18.5369 203.685 18.7646C203.998 19.0379 204.221 19.3567 204.355 19.7211C204.489 20.0854 204.578 20.4953 204.578 20.9963V21.1329C204.578 21.8161 204.399 22.3626 204.087 22.8636C203.774 23.3191 203.328 23.6834 202.703 23.9567L205.247 28.0557H203.507L201.32 24.2755H199.133V28.0557H197.616V17.9448ZM201.052 22.9547C201.722 22.9547 202.257 22.8181 202.57 22.4993C202.927 22.1805 203.06 21.7706 203.06 21.224V21.0874C203.06 20.5409 202.882 20.0854 202.525 19.8122C202.168 19.4933 201.677 19.3567 201.008 19.3567H199.044V23.0003H201.052V22.9547Z" fill="#929292"/>
<path d="M205.827 22.9548C205.827 22.2261 205.961 21.5429 206.184 20.9053C206.407 20.2676 206.764 19.7211 207.166 19.2657C207.612 18.8102 208.103 18.4459 208.683 18.1726C209.264 17.8993 209.933 17.7627 210.602 17.7627H210.692C211.406 17.7627 212.031 17.8993 212.611 18.1271C213.191 18.4003 213.682 18.7191 214.128 19.2201C214.574 19.6756 214.887 20.2221 215.11 20.8597C215.333 21.4973 215.467 22.1805 215.467 22.9092V23.0003C215.467 23.729 215.333 24.4122 215.11 25.0498C214.887 25.6874 214.53 26.234 214.128 26.6894C213.682 27.1449 213.191 27.5092 212.611 27.737C212.031 28.0102 211.361 28.1013 210.692 28.1013H210.647C209.978 28.1013 209.353 27.9647 208.728 27.737C208.148 27.4637 207.612 27.1449 207.211 26.6439C206.809 26.1884 206.452 25.6419 206.229 25.0043C206.006 24.3667 205.872 23.6835 205.872 22.9548H205.827ZM207.657 24.5488C207.835 25.0043 208.059 25.4142 208.326 25.733C208.594 26.0518 208.951 26.3251 209.353 26.5073C209.754 26.6894 210.201 26.7805 210.692 26.7805H210.736C211.227 26.7805 211.629 26.6894 212.031 26.5073C212.432 26.3251 212.789 26.0518 213.057 25.733C213.325 25.4142 213.548 25.0043 213.726 24.5488C213.905 24.0934 213.95 23.5924 213.95 23.0459V22.9548C213.95 22.4082 213.86 21.9072 213.726 21.4518C213.593 20.9964 213.369 20.5865 213.057 20.2676C212.745 19.9488 212.432 19.6756 212.031 19.4934C211.629 19.3112 211.183 19.2201 210.692 19.2201H210.647C210.156 19.2201 209.71 19.3112 209.308 19.4934C208.907 19.6756 208.549 19.9488 208.282 20.2676C208.014 20.5865 207.791 20.9964 207.612 21.4518C207.434 21.9072 207.389 22.4082 207.389 22.9548V23.0459C207.389 23.5924 207.478 24.0934 207.657 24.5488Z" fill="#929292"/>
<path d="M216.449 28.0557C216.226 28.0102 216.002 27.9646 215.779 27.8735V26.4161C215.913 26.5072 216.092 26.5983 216.315 26.6438C216.493 26.6894 216.717 26.7349 216.984 26.7349C217.52 26.7349 217.921 26.5983 218.145 26.325C218.412 26.0518 218.502 25.6419 218.502 25.1864V17.9448H220.019V25.232C220.019 25.6874 219.974 26.0973 219.841 26.4617C219.707 26.826 219.528 27.1448 219.305 27.3725C219.082 27.6003 218.769 27.828 218.412 27.9646C218.055 28.1013 217.654 28.1468 217.252 28.1468C216.94 28.1468 216.672 28.1013 216.449 28.0557Z" fill="#929292"/>
<path d="M222.161 17.9448H228.097V19.3112H223.634V22.226H227.784V23.5468H223.634V26.6438H228.231V28.0102H222.161V17.9448Z" fill="#929292"/>
<path d="M232.114 27.7825C231.533 27.5092 231.042 27.1904 230.596 26.735C230.15 26.2795 229.837 25.733 229.614 25.0954C229.391 24.4577 229.257 23.7746 229.257 23.0003V22.9548C229.257 22.2261 229.391 21.5429 229.614 20.9053C229.837 20.2676 230.195 19.7211 230.596 19.2657C230.998 18.8102 231.533 18.4459 232.114 18.1726C232.694 17.8993 233.363 17.7627 234.077 17.7627C234.524 17.7627 234.925 17.8082 235.282 17.8993C235.684 17.9904 235.996 18.1726 236.353 18.3548C236.666 18.537 236.978 18.7647 237.246 19.0379C237.514 19.3112 237.737 19.5845 237.96 19.9488L236.755 20.7686C236.487 20.2676 236.13 19.9033 235.684 19.63C235.238 19.3568 234.747 19.2201 234.122 19.2201C233.631 19.2201 233.185 19.3112 232.783 19.4934C232.381 19.6756 232.024 19.9488 231.757 20.2676C231.489 20.5865 231.266 20.9964 231.087 21.4518C230.953 21.9072 230.864 22.4082 230.864 23.0003V23.0459C230.864 23.5924 230.953 24.0934 231.087 24.5488C231.221 25.0043 231.444 25.4142 231.757 25.733C232.024 26.0518 232.381 26.3251 232.783 26.5073C233.185 26.6894 233.631 26.7805 234.122 26.7805C234.434 26.7805 234.702 26.735 234.97 26.6894C235.238 26.5983 235.505 26.5073 235.728 26.3706C235.952 26.234 236.175 26.0518 236.353 25.8696C236.532 25.6874 236.71 25.4597 236.844 25.1865L238.005 26.0063C237.826 26.3251 237.603 26.5983 237.335 26.8716C237.067 27.1449 236.755 27.3726 236.443 27.5548C236.086 27.737 235.728 27.9191 235.371 28.0102C234.97 28.1013 234.568 28.1469 234.166 28.1469H234.122C233.363 28.1469 232.694 28.0558 232.114 27.7825Z" fill="#929292"/>
<path d="M240.95 19.3112H238.049V17.9448H245.279V19.3112H242.378V28.0102H240.906V19.3112H240.95Z" fill="#929292"/>
<path d="M248.403 28.1012C248.046 28.0556 247.734 27.9645 247.421 27.8279C247.109 27.6913 246.797 27.5546 246.484 27.3725C246.172 27.1903 245.904 26.9626 245.636 26.7348L246.484 25.5507C246.707 25.7329 246.93 25.915 247.154 26.0972C247.377 26.2338 247.645 26.3705 247.912 26.5071C248.18 26.5982 248.448 26.6893 248.716 26.7348C248.983 26.7804 249.251 26.8259 249.564 26.8259C249.876 26.8259 250.144 26.7804 250.411 26.7348C250.635 26.6893 250.858 26.5982 251.036 26.4616C251.215 26.3249 251.349 26.1883 251.438 26.0061C251.527 25.8239 251.572 25.6418 251.572 25.414C251.572 25.1408 251.527 24.9131 251.393 24.7309C251.259 24.5487 251.081 24.4121 250.858 24.2754C250.635 24.1388 250.411 24.0022 250.099 23.9111C249.831 23.82 249.519 23.7289 249.207 23.6378C248.805 23.5012 248.448 23.4101 248.046 23.2279C247.645 23.0913 247.332 22.9091 247.02 22.6814C246.707 22.4537 246.44 22.1804 246.261 21.8616C246.083 21.5428 245.993 21.1329 245.993 20.6319C245.993 20.1764 246.083 19.7665 246.261 19.4022C246.44 19.0378 246.707 18.7645 246.975 18.5368C247.287 18.3091 247.645 18.1269 248.046 17.9903C248.448 17.8537 248.849 17.8081 249.296 17.8081C249.965 17.8081 250.59 17.8992 251.215 18.1269C251.84 18.3546 252.331 18.6735 252.732 19.0378L251.884 20.1764C251.527 19.8576 251.126 19.5843 250.679 19.4477C250.188 19.3111 249.742 19.22 249.296 19.22C248.983 19.22 248.76 19.2655 248.537 19.3111C248.314 19.3566 248.135 19.4477 247.957 19.5843C247.778 19.721 247.689 19.8576 247.6 19.9942C247.511 20.1764 247.466 20.3131 247.466 20.4952C247.466 20.723 247.511 20.9507 247.645 21.0873C247.778 21.2695 247.957 21.4061 248.135 21.5428C248.359 21.6794 248.582 21.7705 248.894 21.8616C249.162 21.9527 249.474 22.0437 249.787 22.1348C250.188 22.2715 250.59 22.4081 250.992 22.5447C251.393 22.6814 251.75 22.8636 252.063 23.1368C252.375 23.3645 252.643 23.6378 252.821 24.0022C253 24.321 253.134 24.7309 253.134 25.2319C253.134 25.7329 253.045 26.1428 252.866 26.5071C252.688 26.8715 252.42 27.1903 252.107 27.418C251.795 27.6457 251.393 27.8279 250.947 27.9645C250.501 28.1012 250.054 28.1467 249.564 28.1467C249.073 28.1923 248.76 28.1467 248.403 28.1012Z" fill="#929292"/>
<path d="M191.412 45.2257C190.921 45.0435 190.52 44.8158 190.163 44.497C189.806 44.1782 189.583 43.7683 189.404 43.2673C189.225 42.7663 189.136 42.2198 189.136 41.5822V35.2515H190.654V41.4455C190.654 41.8554 190.698 42.2653 190.832 42.5841C190.966 42.9029 191.1 43.1762 191.323 43.4039C191.546 43.6317 191.769 43.8138 192.082 43.9049C192.394 43.996 192.707 44.0871 193.108 44.0871C193.465 44.0871 193.822 44.0416 194.135 43.9049C194.447 43.8138 194.67 43.6317 194.893 43.4039C195.072 43.1762 195.25 42.9029 195.34 42.5841C195.474 42.2653 195.518 41.901 195.518 41.4455V35.2515H197.036V41.5822C197.036 42.2198 196.946 42.7663 196.768 43.2673C196.589 43.7683 196.321 44.1782 195.964 44.497C195.607 44.8158 195.206 45.0891 194.715 45.2257C194.224 45.4079 193.688 45.499 193.108 45.499C192.439 45.4534 191.903 45.4079 191.412 45.2257Z" fill="#929292"/>
<path d="M199.133 35.2516H200.65V39.6239H200.739L204.801 35.2061H206.63L202.168 39.8971L206.987 45.3625H205.068L200.739 40.3981H200.65V45.3625H199.133V35.2516Z" fill="#929292"/>
<path d="M208.148 35.2515H211.718C212.254 35.2515 212.745 35.3426 213.146 35.4792C213.548 35.6158 213.905 35.8435 214.217 36.0713C214.53 36.3445 214.753 36.6633 214.887 37.0277C215.021 37.3921 215.11 37.802 215.11 38.3029V38.4396C215.11 39.1228 214.931 39.6693 214.619 40.1703C214.307 40.6257 213.86 40.9901 213.236 41.2633L215.779 45.3624H213.95L211.763 41.5822H209.576V45.3624H208.059V35.2515H208.148ZM211.629 40.2614C212.298 40.2614 212.834 40.1247 213.146 39.8059C213.503 39.4871 213.637 39.0772 213.637 38.4851V38.3485C213.637 37.802 213.459 37.3465 213.102 37.0732C212.745 36.7544 212.254 36.6178 211.584 36.6178H209.576V40.2614H211.629Z" fill="#929292"/>
<path d="M220.109 35.2515H222.161L225.687 45.3624H224.081L223.054 42.3109L223.009 42.1742L221.135 36.7544H221.046L219.216 42.2198L219.171 42.3564L218.145 45.4079H216.494L220.109 35.2515ZM218.859 41.3544H223.411L223.902 42.6752H218.368L218.859 41.3544Z" fill="#929292"/>
<path d="M226.847 35.2515H228.365V45.3624H226.847V35.2515Z" fill="#929292"/>
<path d="M230.596 35.2515H232.292L236.71 42.9029H236.844V35.2515H238.317V45.3624H236.755L232.203 37.4831H232.069V45.3624H230.596V35.2515Z" fill="#929292"/>
<path d="M240.548 35.2515H246.484V36.6178H242.021V39.5327H246.172V40.8534H242.021V43.9505H246.618V45.3168H240.548V35.2515Z" fill="#929292"/>
<path d="M0 31.9268V2.55057C0 2.00403 0.178515 1.54859 0.535544 1.18423C0.892574 0.819874 1.33886 0.637695 1.8744 0.637695H8.70259C9.23814 0.637695 9.68442 0.819874 10.0415 1.18423C10.3985 1.54859 10.577 2.00403 10.577 2.55057V12.9347H19.1011C19.6366 12.9347 20.0829 13.1169 20.4399 13.4813C20.797 13.8456 20.9755 14.3011 20.9755 14.8476V18.5823C20.9755 19.1288 20.797 19.5842 20.4399 19.9486C20.0829 20.3129 19.6366 20.4951 19.1011 20.4951H10.577V32.0634C10.577 34.204 11.0679 35.8892 12.0497 37.0278C13.0316 38.212 14.3258 38.7585 15.9771 38.7585C16.5126 38.7585 17.2713 38.7129 18.1639 38.5763C19.1011 38.4397 19.7259 38.3941 20.1722 38.3941H21.2879C21.8234 38.3941 22.3143 38.5763 22.6714 38.8951C23.0284 39.2595 23.2069 39.6694 23.2069 40.2159V43.4496C23.2069 43.905 23.0284 44.3149 22.6714 44.6793C22.3143 45.0436 21.8681 45.2258 21.2879 45.3169C19.1903 45.7268 16.5126 45.909 13.1655 45.909C4.37361 46.0001 0 41.309 0 31.9268Z" fill="#929292"/>
<path d="M29.3209 17.899C27.3126 16.0317 26.2861 13.5267 26.2861 10.3386C26.2861 7.1505 27.3126 4.64554 29.3209 2.77822C31.3292 0.910891 33.873 0 36.9078 0C39.9425 0 42.4863 0.910891 44.5393 2.77822C46.5476 4.64554 47.574 7.1505 47.574 10.3386C47.574 13.5267 46.5476 16.0317 44.5393 17.899C42.531 19.7663 39.9871 20.6772 36.9078 20.6772C33.873 20.6772 31.3292 19.7663 29.3209 17.899ZM33.9176 6.55842C33.1589 7.46931 32.8019 8.74455 32.8019 10.3842C32.8019 12.0238 33.1589 13.2535 33.9176 14.2099C34.6763 15.1208 35.6582 15.5762 36.9078 15.5762C38.1574 15.5762 39.1838 15.1208 39.8979 14.2099C40.6566 13.299 41.0136 12.0238 41.0136 10.3842C41.0136 8.74455 40.6566 7.51485 39.8979 6.55842C39.1392 5.64752 38.1574 5.19208 36.9078 5.19208C35.6582 5.19208 34.6317 5.64752 33.9176 6.55842Z" fill="#929292"/>
<path d="M53.7773 42.402V3.59809C53.7773 2.77829 54.0451 2.09512 54.5807 1.50304C55.1162 0.910963 55.7856 0.637695 56.589 0.637695H79.9298C92.2473 0.637695 98.406 6.42185 98.406 18.0357C98.406 29.6496 92.2473 35.4337 79.9298 35.4337H65.2915V42.4476C65.2915 43.2674 65.0238 43.9506 64.4436 44.5426C63.8634 45.1347 63.194 45.408 62.3907 45.408H56.6782C55.8749 45.408 55.2055 45.1347 54.6253 44.5426C54.0897 43.905 53.7773 43.2218 53.7773 42.402ZM65.3362 26.5981H76.4933C79.9297 26.5981 82.5182 26.006 84.3034 24.8218C86.0885 23.6377 86.9811 21.3605 86.9811 18.0357C86.9811 14.6654 86.0885 12.3882 84.3034 11.2496C82.5182 10.0654 79.9297 9.47334 76.4933 9.47334H65.3362V26.5981Z" fill="#929292"/>
<path d="M103.449 27.6912V3.59809C103.449 2.77829 103.717 2.09512 104.297 1.50304C104.877 0.910963 105.547 0.637695 106.395 0.637695H112.107C112.91 0.637695 113.58 0.910963 114.16 1.50304C114.74 2.09512 115.008 2.77829 115.008 3.59809V27.7367C115.008 30.7882 115.677 33.0654 116.972 34.5684C118.266 36.0714 120.319 36.8001 123.086 36.8001H127.995C130.762 36.8001 132.77 36.0714 134.109 34.5684C135.403 33.0654 136.073 30.7882 136.073 27.7367V3.59809C136.073 2.77829 136.341 2.09512 136.921 1.50304C137.501 0.910963 138.17 0.637695 138.974 0.637695H144.641C145.489 0.637695 146.159 0.910963 146.739 1.50304C147.319 2.09512 147.587 2.77829 147.587 3.59809V27.6912C147.587 33.3842 145.936 37.8021 142.678 40.9446C139.375 44.0872 134.6 45.6357 128.307 45.6357H122.729C116.436 45.6357 111.661 44.0872 108.358 40.9446C105.056 37.8021 103.449 33.3842 103.449 27.6912Z" fill="#929292"/>
</g>
<defs>
<clipPath id="clip0_227_133">
<rect width="253" height="46" fill="white"/>
</clipPath>
</defs>
</svg>
