<svg width="247" height="44" viewBox="0 0 247 44" fill="none" xmlns="http://www.w3.org/2000/svg">
<g clip-path="url(#clip0_58_38)">
<path d="M0 3.34019V1.90868C0 1.48174 0.124634 1.15526 0.398829 0.878999C0.673024 0.602744 1.022 0.477173 1.42083 0.477173H20.6145C21.0382 0.477173 21.3623 0.602744 21.6365 0.878999C21.9107 1.15526 22.0353 1.50685 22.0353 1.90868V3.34019C22.0353 3.76713 21.9107 4.09361 21.6365 4.36987C21.3623 4.64612 21.0133 4.77169 20.6145 4.77169H13.8842V20.9201C13.8842 21.3219 13.7347 21.6484 13.4605 21.9247C13.1863 22.2009 12.8373 22.3265 12.4634 22.3265H9.59683C9.198 22.3265 8.87395 22.2009 8.59976 21.9247C8.32556 21.6484 8.176 21.3219 8.176 20.9201V4.77169H1.44576C1.022 4.77169 0.697951 4.64612 0.423756 4.36987C0.124634 4.09361 0 3.74201 0 3.34019Z" fill="white"/>
<path d="M24.5278 20.8698V1.90865C24.5278 1.50682 24.6774 1.18034 24.9516 0.878967C25.2258 0.602711 25.5748 0.452026 25.9985 0.452026H28.8152C29.2141 0.452026 29.5381 0.602711 29.8123 0.878967C30.0865 1.15522 30.2361 1.50682 30.2361 1.90865V8.76481H40.6555V1.90865C40.6555 1.50682 40.8051 1.18034 41.0793 0.878967C41.3534 0.602711 41.7024 0.452026 42.1012 0.452026H44.918C45.3417 0.452026 45.6658 0.602711 45.9649 0.878967C46.2391 1.15522 46.3887 1.50682 46.3887 1.90865V20.8949C46.3887 21.2968 46.2391 21.6233 45.9649 21.8995C45.6658 22.1758 45.3417 22.3265 44.9429 22.3265H42.1262C41.7273 22.3265 41.4033 22.2009 41.1042 21.9246C40.83 21.6484 40.6804 21.3219 40.6804 20.9201V13.0844H30.261V20.9201C30.261 21.3219 30.1114 21.6484 29.8372 21.9246C29.5631 22.2009 29.2141 22.3265 28.8402 22.3265H26.0234C25.6246 22.3265 25.2756 22.1758 25.0014 21.8995C24.6774 21.6233 24.5278 21.2717 24.5278 20.8698Z" fill="white"/>
<path d="M50.7012 20.8448V1.88357C50.7012 1.48174 50.8507 1.15526 51.1249 0.878999C51.3991 0.602744 51.7481 0.477173 52.1469 0.477173H69.5957C69.9945 0.477173 70.3186 0.627858 70.5928 0.904113C70.867 1.18037 71.0165 1.53197 71.0165 1.93379V3.3653C71.0165 3.76713 70.867 4.09361 70.5928 4.36987C70.3186 4.64612 69.9696 4.79681 69.5957 4.79681H56.4094V9.24201H67.7511C68.15 9.24201 68.474 9.3927 68.7482 9.66895C69.0224 9.94521 69.172 10.2968 69.172 10.6735V12.105C69.172 12.5069 69.0224 12.8333 68.7482 13.1096C68.474 13.3858 68.125 13.5365 67.7511 13.5365H56.4094V18.032H69.5459C69.9198 18.032 70.2687 18.1575 70.518 18.4338C70.7673 18.71 70.9168 19.0365 70.9168 19.4384V20.895C70.9168 21.2968 70.7673 21.6233 70.4931 21.8995C70.2189 22.1758 69.8699 22.3265 69.4711 22.3265H52.0971C51.6982 22.3265 51.3742 22.1758 51.0751 21.8995C50.8258 21.6233 50.7012 21.2717 50.7012 20.8448Z" fill="white"/>
<path d="M96.2921 21.6484C96.2921 22.0753 96.0429 22.3013 95.5194 22.3013H91.8801C91.5062 22.3013 91.0824 22.1507 90.6088 21.8744C90.1601 21.5981 89.8112 21.2465 89.5619 20.8698L87.0194 16.8265C85.9724 15.1689 84.6762 14.315 83.1806 14.315H79.4914V20.8698C79.4914 21.2717 79.3419 21.5981 79.0677 21.8744C78.7935 22.1507 78.4445 22.3013 78.0706 22.3013H75.229C74.8301 22.3013 74.5061 22.1507 74.207 21.8744C73.9328 21.5981 73.7832 21.2465 73.7832 20.8698V1.90865C73.7832 1.50682 73.9078 1.18034 74.182 0.878967C74.4562 0.602711 74.7803 0.452026 75.1791 0.452026H87.6675C89.9856 0.452026 91.8801 1.07988 93.3508 2.33559C94.8214 3.5913 95.5693 5.27394 95.5693 7.38353C95.5693 10.347 93.6748 12.2055 89.861 12.9338C90.4593 13.1598 91.0326 13.5365 91.5311 14.089C92.0546 14.6415 92.6279 15.4201 93.3009 16.4497L96.0429 20.8447C96.2174 21.1712 96.2921 21.4223 96.2921 21.6484ZM79.4665 10.0205H85.9226C86.9695 10.0205 87.8669 9.81961 88.6645 9.39267C89.4622 8.96572 89.861 8.31276 89.861 7.40865C89.861 6.50454 89.4622 5.82646 88.6645 5.42463C87.8669 4.99769 86.9695 4.79678 85.9226 4.79678H79.4665V10.0205Z" fill="white"/>
<path d="M98.8101 20.8447V1.93376C98.8101 1.50682 98.9347 1.15522 99.2089 0.878967C99.4831 0.602711 99.8071 0.452026 100.206 0.452026H106.363C106.762 0.452026 107.136 0.602711 107.485 0.878967C107.834 1.15522 108.083 1.50682 108.207 1.90865L112.669 14.9178L117.131 1.90865C117.256 1.50682 117.48 1.18034 117.854 0.878967C118.203 0.602711 118.577 0.452026 118.976 0.452026H125.133C125.532 0.452026 125.856 0.602711 126.13 0.878967C126.404 1.15522 126.529 1.50682 126.529 1.93376V20.8447C126.529 21.2717 126.379 21.5981 126.105 21.8995C125.831 22.1758 125.482 22.3265 125.108 22.3265H122.391C121.992 22.3265 121.668 22.1758 121.394 21.8995C121.12 21.6233 120.97 21.2717 120.97 20.8447V5.95203L115.636 20.9452C115.486 21.3219 115.237 21.6484 114.888 21.9246C114.539 22.2009 114.165 22.3265 113.766 22.3265H111.598C111.199 22.3265 110.825 22.2009 110.476 21.9246C110.127 21.6484 109.878 21.3219 109.728 20.9452L104.394 5.95203V20.8447C104.394 21.2717 104.244 21.5981 103.97 21.8995C103.696 22.1758 103.347 22.3265 102.973 22.3265H100.256C99.857 22.3265 99.5329 22.1758 99.2338 21.8995C98.9596 21.6233 98.8101 21.2717 98.8101 20.8447Z" fill="white"/>
<path d="M150.857 20.0411C148.788 21.8744 145.772 22.7785 141.784 22.7785C137.796 22.7785 134.779 21.8744 132.711 20.0411C130.642 18.2078 129.62 15.3196 129.62 11.3767C129.62 7.43379 130.642 4.54566 132.711 2.71233C134.779 0.90411 137.796 0 141.784 0C145.772 0 148.788 0.904109 150.857 2.73744C152.926 4.54566 153.948 7.43379 153.948 11.4018C153.948 15.3447 152.926 18.2329 150.857 20.0411ZM146.719 5.95205C145.697 4.72146 144.052 4.11872 141.784 4.11872C139.516 4.11872 137.87 4.72146 136.848 5.95205C135.826 7.18265 135.303 8.99087 135.303 11.4018C135.303 13.8128 135.826 15.621 136.848 16.8516C137.87 18.0571 139.516 18.6849 141.784 18.6849C144.052 18.6849 145.697 18.0822 146.719 16.8516C147.741 15.6461 148.24 13.8128 148.24 11.4018C148.265 8.99087 147.741 7.15753 146.719 5.95205Z" fill="white"/>
<path d="M167.384 19.7647C165.963 17.9565 165.664 15.1689 166.437 11.4268C167.209 7.68484 168.73 4.89717 170.998 3.11406C173.242 1.30584 176.233 0.401733 179.972 0.401733H183.337C185.555 0.401733 187.45 0.929131 189.02 2.00904C190.591 3.08895 191.189 4.42 190.865 6.0273C190.74 6.63004 190.466 7.05698 190.067 7.30813C189.668 7.55927 189.294 7.68484 188.945 7.68484H187.201C186.328 7.68484 185.755 7.18256 185.431 6.2031C185.132 5.19854 183.96 4.72137 181.941 4.72137H179.249C177.03 4.72137 175.435 5.19854 174.463 6.15287C173.466 7.10721 172.718 8.8652 172.17 11.4268C171.621 13.9885 171.621 15.7465 172.12 16.7259C172.618 17.7054 173.79 18.2077 175.585 18.2077H178.676C180.296 18.2077 181.517 17.9063 182.34 17.2784C183.162 16.6506 183.711 15.7465 183.985 14.5912H180.57C180.171 14.5912 179.872 14.4405 179.648 14.1643C179.423 13.888 179.349 13.5364 179.448 13.1597L179.698 11.9794C179.772 11.5775 179.997 11.251 180.321 10.9748C180.645 10.6985 181.019 10.5479 181.418 10.5479H189.02C189.419 10.5479 189.718 10.6985 189.943 10.9748C190.167 11.251 190.242 11.6026 190.142 11.9794L189.793 13.662C189.195 16.4999 187.899 18.6848 185.879 20.2168C183.86 21.7488 181.218 22.5022 177.953 22.5022H174.538C171.173 22.5022 168.805 21.5981 167.384 19.7647Z" fill="white"/>
<path d="M211.554 20.1164C209.111 21.9497 205.896 22.8538 201.908 22.8538C197.919 22.8538 195.078 21.9497 193.408 20.1164C191.713 18.283 191.289 15.3949 192.111 11.452C192.934 7.50907 194.579 4.62095 197.022 2.78761C199.465 0.979395 202.68 0.0501709 206.669 0.0501709C210.657 0.0501709 213.499 0.954281 215.169 2.78761C216.839 4.59583 217.287 7.48396 216.44 11.452C215.642 15.3949 213.997 18.283 211.554 20.1164ZM210.383 6.00223C209.61 4.77163 208.089 4.16889 205.821 4.16889C203.553 4.16889 201.758 4.77163 200.487 6.00223C199.216 7.23282 198.318 9.04104 197.82 11.452C197.321 13.863 197.446 15.6712 198.218 16.9018C198.991 18.1073 200.512 18.7351 202.78 18.7351C205.048 18.7351 206.818 18.1324 208.089 16.9018C209.361 15.6963 210.258 13.863 210.757 11.452C211.255 9.04104 211.131 7.23282 210.383 6.00223Z" fill="white"/>
<path d="M225.887 0.12561H218.409L230.648 16.3494L234.362 11.3516L225.887 0.12561Z" fill="white"/>
<path d="M225.912 22.854L234.362 11.4772L230.623 6.50464L218.483 22.854H225.912Z" fill="white"/>
<path d="M238.524 0.150757H231.046L243.285 16.3745L247 11.3768L238.524 0.150757Z" fill="white"/>
<path d="M238.55 22.879L247 11.5023L243.261 6.52966L231.122 22.879H238.55Z" fill="white"/>
<path d="M191.313 37.6462C191.313 37.5708 191.338 37.5206 191.388 37.4704C191.438 37.4201 191.488 37.395 191.538 37.395H192.36C192.435 37.395 192.485 37.4201 192.51 37.4704C192.535 37.5206 192.585 37.5708 192.585 37.6462V38.7763C192.984 38.6507 193.333 38.6005 193.632 38.6005C194.23 38.6005 194.704 38.7763 195.053 39.1279C195.401 39.4795 195.576 40.0069 195.576 40.685C195.576 42.0663 194.803 42.7695 193.258 42.7695C192.909 42.7695 192.535 42.7192 192.161 42.6439C191.787 42.5685 191.488 42.4681 191.313 42.3425V37.6462ZM192.56 39.6302V41.79C192.759 41.8402 193.033 41.8653 193.357 41.8653C193.682 41.8653 193.906 41.7649 194.055 41.5891C194.205 41.4133 194.28 41.0868 194.28 40.685C194.28 40.2831 194.205 39.9567 194.08 39.7558C193.956 39.5548 193.706 39.4795 193.382 39.4795C193.133 39.4795 192.884 39.5297 192.56 39.6302Z" fill="white"/>
<path d="M196.947 43.0709L197.421 43.1211C197.769 43.1211 197.994 42.8699 198.143 42.3677C197.72 42.3677 197.396 42.2421 197.096 41.9909C196.797 41.7398 196.573 41.2877 196.374 40.6599L195.825 38.8768C195.825 38.8517 195.825 38.8266 195.825 38.8014C195.825 38.7763 195.85 38.7512 195.875 38.701C195.9 38.6508 195.95 38.6508 196 38.6508H196.772C196.847 38.6508 196.922 38.6759 196.972 38.7261C197.022 38.7763 197.072 38.8266 197.096 38.9019L197.57 40.459C197.695 40.8357 197.819 41.1119 197.944 41.2626C198.069 41.4133 198.218 41.4887 198.393 41.4887L199.116 38.9019C199.14 38.8266 199.165 38.7763 199.24 38.7261C199.315 38.6759 199.365 38.6508 199.44 38.6508H200.212C200.262 38.6508 200.312 38.6759 200.337 38.701C200.362 38.7261 200.387 38.7763 200.387 38.8014C200.387 38.8266 200.387 38.8517 200.387 38.8768L199.44 42.3174C199.265 42.9202 199.066 43.3722 198.816 43.6234C198.567 43.8745 198.243 44.0252 197.844 44.0252C197.445 44.0252 197.171 44.0001 196.997 43.975C196.822 43.9498 196.723 43.8996 196.698 43.8745C196.673 43.8494 196.648 43.774 196.648 43.7238V43.322C196.648 43.2466 196.673 43.1964 196.698 43.1462C196.723 43.096 196.797 43.0709 196.847 43.0709H196.947Z" fill="white"/>
<path d="M205.248 40.057V31.9451C205.248 31.7944 205.297 31.6689 205.397 31.5684C205.497 31.468 205.621 31.4177 205.771 31.4177H207.69C207.84 31.4177 207.965 31.468 208.064 31.5684C208.164 31.6689 208.214 31.7944 208.214 31.9451V34.8081H210.607C210.756 34.8081 210.881 34.8584 210.981 34.9588C211.08 35.0593 211.13 35.1848 211.13 35.3355V36.3652C211.13 36.5159 211.08 36.6415 210.981 36.7419C210.881 36.8424 210.756 36.8926 210.607 36.8926H208.214V40.0821C208.214 40.6848 208.338 41.1369 208.613 41.4634C208.887 41.7899 209.261 41.9406 209.709 41.9406C209.859 41.9406 210.058 41.9154 210.333 41.8903C210.582 41.8652 210.781 41.8401 210.881 41.8401H211.205C211.355 41.8401 211.479 41.8903 211.579 41.9908C211.679 42.0912 211.729 42.2168 211.729 42.3675V43.2716C211.729 43.3972 211.679 43.5227 211.579 43.5981C211.479 43.6985 211.355 43.7488 211.205 43.7739C210.632 43.8743 209.859 43.9497 208.937 43.9497C206.469 43.9246 205.248 42.6438 205.248 40.057Z" fill="white"/>
<path d="M213.449 36.1895C212.875 35.6872 212.601 34.984 212.601 34.105C212.601 33.226 212.875 32.5228 213.449 32.0205C214.022 31.5182 214.72 31.2671 215.567 31.2671C216.415 31.2671 217.138 31.5182 217.686 32.0205C218.259 32.5228 218.534 33.226 218.534 34.105C218.534 34.984 218.259 35.6872 217.686 36.1895C217.113 36.6917 216.415 36.9429 215.567 36.9429C214.72 36.9429 213.997 36.6917 213.449 36.1895ZM214.72 33.0502C214.52 33.3013 214.396 33.6529 214.396 34.105C214.396 34.557 214.496 34.9086 214.72 35.1598C214.919 35.4109 215.218 35.5365 215.567 35.5365C215.916 35.5365 216.191 35.4109 216.415 35.1598C216.614 34.9086 216.739 34.557 216.739 34.105C216.739 33.6529 216.639 33.3013 216.415 33.0502C216.215 32.7991 215.916 32.6735 215.567 32.6735C215.218 32.6735 214.944 32.7991 214.72 33.0502Z" fill="white"/>
<path d="M220.278 42.9451V32.2465C220.278 32.0205 220.353 31.8196 220.503 31.6689C220.652 31.5182 220.852 31.4177 221.076 31.4177H227.582C231.022 31.4177 232.742 33.025 232.742 36.2145C232.742 39.404 231.022 41.0113 227.582 41.0113H223.494V42.9451C223.494 43.1711 223.419 43.3469 223.27 43.5227C223.12 43.6734 222.921 43.7488 222.696 43.7488H221.101C220.877 43.7488 220.677 43.6734 220.528 43.5227C220.353 43.3469 220.278 43.1711 220.278 42.9451ZM223.494 38.5753H226.61C227.557 38.5753 228.28 38.4246 228.778 38.0981C229.277 37.7716 229.526 37.1438 229.526 36.2145C229.526 35.2853 229.277 34.6575 228.778 34.331C228.28 34.0045 227.557 33.8538 226.61 33.8538H223.494V38.5753Z" fill="white"/>
<path d="M234.138 38.8766V32.2465C234.138 32.0205 234.212 31.8196 234.362 31.6689C234.512 31.5182 234.711 31.4177 234.935 31.4177H236.531C236.755 31.4177 236.954 31.4931 237.104 31.6689C237.254 31.8196 237.328 32.0205 237.328 32.2465V38.9017C237.328 39.7556 237.503 40.3835 237.877 40.7853C238.251 41.1871 238.799 41.4132 239.572 41.4132H240.943C241.715 41.4132 242.289 41.2122 242.638 40.7853C243.012 40.3835 243.186 39.7556 243.186 38.9017V32.2465C243.186 32.0205 243.261 31.8196 243.41 31.6689C243.56 31.5182 243.759 31.4177 243.984 31.4177H245.579C245.803 31.4177 246.003 31.4931 246.177 31.6689C246.327 31.8196 246.427 32.0205 246.427 32.2465V38.8766C246.427 40.4588 245.978 41.6643 245.056 42.5182C244.133 43.3721 242.812 43.8241 241.042 43.8241H239.497C237.727 43.8241 236.406 43.3972 235.484 42.5182C234.611 41.6643 234.138 40.4337 234.138 38.8766Z" fill="white"/>
</g>
<defs>
<clipPath id="clip0_58_38">
<rect width="247" height="44" fill="white"/>
</clipPath>
</defs>
</svg>
