<svg width="44" height="12" viewBox="0 0 44 12" fill="none" xmlns="http://www.w3.org/2000/svg">
<path d="M34.0607 11.8926L43.56 6.76034C43.6951 6.67779 43.8061 6.56504 43.8829 6.43228C43.9598 6.29953 44 6.15095 44 6C44 5.84905 43.9598 5.70048 43.8829 5.56772C43.8061 5.43496 43.6951 5.32221 43.56 5.23966L34.0607 0.107354C33.8756 0.0134286 33.6623 -0.0202041 33.4545 0.0117577C33.2467 0.0437196 33.0562 0.139458 32.913 0.28388C32.7698 0.428301 32.682 0.613191 32.6636 0.809401C32.6452 1.00561 32.6971 1.20198 32.8111 1.36755L35.5661 5.11998L0.940902 5.11997C0.69136 5.11997 0.452038 5.21269 0.275585 5.37773C0.0991323 5.54276 -2.52066e-07 5.7666 -2.62268e-07 6C-2.7247e-07 6.2334 0.0991323 6.45723 0.275585 6.62227C0.452038 6.78731 0.69136 6.88002 0.940902 6.88002L35.5661 6.88003L32.8111 10.6325C32.6971 10.798 32.6452 10.9944 32.6636 11.1906C32.682 11.3868 32.7698 11.5717 32.913 11.7161C33.0562 11.8605 33.2467 11.9563 33.4545 11.9882C33.6623 12.0202 33.8756 11.9866 34.0607 11.8926Z" fill="#1C1C1C"/>
</svg>
