<svg width="24" height="24" viewBox="0 0 24 24" fill="none" xmlns="http://www.w3.org/2000/svg">
<g clip-path="url(#clip0_142_44)">
<path d="M12 24C5.38125 24 0 18.6187 0 12C0 5.38125 5.38125 0 12 0C18.6187 0 24 5.38125 24 12C24 18.6187 18.6187 24 12 24ZM8.93906 16.8703C9.14531 17.6859 9.43125 18.4828 9.79219 19.2422C10.1859 20.0438 10.6359 20.6813 11.0953 21.0797C11.4187 21.3609 11.7234 21.5062 12 21.5062C12.2766 21.5062 12.5766 21.3656 12.9047 21.0797C13.3641 20.6813 13.8141 20.0484 14.2078 19.2422C14.5688 18.4828 14.8547 17.6906 15.0609 16.8703H8.93906ZM3.83906 16.8703C4.73906 18.375 6.0375 19.6031 7.59375 20.4234C7.08281 19.4016 6.67031 18.2016 6.375 16.8703H3.83906ZM17.6297 16.8703C17.3344 18.2016 16.9219 19.4016 16.4109 20.4234C17.9625 19.6078 19.2609 18.3797 20.1656 16.8703H17.6297ZM21.2062 14.3719C21.6047 12.8156 21.6047 11.1844 21.2062 9.62812H18.0281C18.1078 10.4062 18.1453 11.2031 18.1453 12C18.1453 12.7969 18.1031 13.5938 18.0281 14.3719H21.2062ZM15.5156 14.3719C15.6047 13.5844 15.6469 12.7922 15.6469 12C15.6469 11.2078 15.6047 10.4156 15.5156 9.62812H8.48438C8.31094 11.2031 8.31094 12.7969 8.48438 14.3719H15.5156ZM5.97188 14.3719C5.89219 13.5938 5.85469 12.7969 5.85469 12C5.85469 11.2031 5.89219 10.4062 5.97188 9.62812H2.79375C2.39531 11.1844 2.39531 12.8156 2.79375 14.3719H5.97188ZM20.1609 7.12969C19.2609 5.625 17.9625 4.39688 16.4062 3.57656C16.9172 4.59844 17.3297 5.79844 17.625 7.12969H20.1609ZM15.0609 7.12969C14.8547 6.31406 14.5688 5.51719 14.2078 4.75781C13.8141 3.95625 13.3641 3.31875 12.9047 2.92031C12.5766 2.63906 12.2766 2.49375 12 2.49375C11.7234 2.49375 11.4234 2.63437 11.0953 2.92031C10.6359 3.31875 10.1859 3.95156 9.79219 4.75781C9.43125 5.51719 9.14531 6.30938 8.93906 7.12969H15.0609ZM6.37031 7.12969C6.66562 5.79844 7.07812 4.59844 7.58906 3.57656C6.0375 4.39219 4.73906 5.62031 3.83438 7.12969H6.37031Z" fill="#929292"/>
</g>
<defs>
<clipPath id="clip0_142_44">
<rect width="24" height="24" fill="white"/>
</clipPath>
</defs>
</svg>
