<svg width="24" height="24" viewBox="0 0 24 24" fill="none" xmlns="http://www.w3.org/2000/svg">
<path d="M4.29248 0.409668C9.41423 -0.136758 14.5799 -0.13674 19.7017 0.409668C20.6962 0.514688 21.6248 0.95701 22.3325 1.66357C23.0401 2.3702 23.4848 3.29815 23.5913 4.29248C24.1377 9.4142 24.1377 14.5799 23.5913 19.7017C23.4863 20.6962 23.0431 21.6248 22.3364 22.3325C21.6297 23.0402 20.702 23.4849 19.7075 23.5913C14.5857 24.1377 9.42016 24.1377 4.29834 23.5913C3.30373 23.4863 2.37518 23.0431 1.66748 22.3364C0.959833 21.6298 0.516122 20.7019 0.409668 19.7075C-0.136767 14.5857 -0.136767 9.42017 0.409668 4.29834C0.514701 3.30379 0.956933 2.37516 1.66357 1.66748C2.37018 0.959879 3.29818 0.516179 4.29248 0.409668ZM13.6587 4.50049C11.6187 4.50049 10.2271 5.77507 10.2271 8.11768V10.1362H8.58252C8.53107 10.137 8.48037 10.1481 8.43311 10.1685C8.38575 10.1889 8.34308 10.2184 8.30713 10.2554C8.27121 10.2923 8.24221 10.3354 8.22314 10.3833C8.20407 10.4312 8.19508 10.4831 8.1958 10.5347L8.20361 12.6245C8.20307 12.6759 8.21276 12.7272 8.23193 12.7749C8.2511 12.8226 8.27998 12.8661 8.31592 12.9028C8.35182 12.9394 8.39475 12.9687 8.44189 12.9888C8.4891 13.0089 8.54 13.0195 8.59131 13.02H10.2271V19.2163C10.2256 19.253 10.2316 19.2903 10.2446 19.3247C10.2577 19.3589 10.2778 19.3901 10.3032 19.4165C10.3286 19.4429 10.3593 19.4636 10.3931 19.478C10.4269 19.4924 10.4637 19.5005 10.5005 19.5005H12.7104C12.7839 19.4987 12.8538 19.4674 12.9048 19.4146C12.9556 19.3618 12.9835 19.2915 12.9829 19.2183L12.9946 13.02H15.1763C15.272 13.0188 15.3642 12.9829 15.4351 12.9185C15.5059 12.8539 15.551 12.7648 15.561 12.6694L15.8022 10.5796C15.8094 10.5247 15.8045 10.4685 15.7886 10.4155C15.7726 10.3625 15.7458 10.3129 15.7095 10.271C15.6732 10.2292 15.6279 10.1957 15.5776 10.1724C15.5274 10.1491 15.4728 10.1369 15.4175 10.1362H12.981V8.38916C12.981 7.60102 13.1966 7.05518 14.3052 7.05518H15.3306C15.382 7.05459 15.4327 7.04409 15.48 7.02393C15.5275 7.00361 15.5708 6.974 15.6069 6.93701C15.643 6.90002 15.6718 6.85612 15.6909 6.80811C15.71 6.76028 15.7199 6.70919 15.7192 6.65771V4.89795C15.7199 4.84648 15.71 4.79538 15.6909 4.74756C15.6718 4.69955 15.643 4.65565 15.6069 4.61865C15.5708 4.58168 15.5275 4.55205 15.48 4.53174C15.4327 4.51159 15.382 4.50107 15.3306 4.50049H13.6587Z" fill="#929292"/>
</svg>
