<svg width="24" height="24" viewBox="0 0 24 24" fill="none" xmlns="http://www.w3.org/2000/svg">
<path d="M4.29346 0.409668C9.41519 -0.136735 14.5809 -0.136756 19.7026 0.409668C20.6971 0.51479 21.6259 0.956974 22.3335 1.66357C23.041 2.37018 23.4848 3.29822 23.5913 4.29248C24.1377 9.41421 24.1377 14.5799 23.5913 19.7017C23.4863 20.6963 23.0431 21.6248 22.3364 22.3325C21.6297 23.0402 20.702 23.4849 19.7075 23.5913C14.5857 24.1377 9.42011 24.1377 4.29834 23.5913C3.3038 23.4862 2.37514 23.0431 1.66748 22.3364C0.959899 21.6298 0.516108 20.7019 0.409668 19.7075C-0.136767 14.5857 -0.136767 9.42017 0.409668 4.29834C0.514693 3.30384 0.956997 2.37515 1.66357 1.66748C2.37029 0.959777 3.29899 0.516096 4.29346 0.409668ZM5.52002 9.44775C5.38562 9.44785 5.25667 9.50115 5.16162 9.59619C5.0666 9.69128 5.01321 9.82015 5.01318 9.95459V18.9927C5.013 19.0593 5.0259 19.1254 5.05127 19.187C5.0767 19.2486 5.11448 19.3049 5.16162 19.3521C5.2086 19.399 5.26434 19.436 5.32568 19.4614C5.3872 19.4868 5.45348 19.5006 5.52002 19.5005H7.67627C7.74294 19.5005 7.80905 19.487 7.87061 19.4614C7.93206 19.4359 7.98771 19.3982 8.03467 19.3511C8.08163 19.3039 8.11878 19.2476 8.14404 19.186C8.16928 19.1244 8.18246 19.0583 8.18213 18.9917V9.95459C8.1821 9.82033 8.1285 9.69126 8.03369 9.59619C7.93889 9.50132 7.8104 9.44811 7.67627 9.44775H5.52002ZM15.7671 9.29736C14.0939 9.29736 13.3099 9.90998 12.7808 10.7036V9.91553C12.7808 9.79191 12.7314 9.67289 12.644 9.58545C12.5566 9.49799 12.4377 9.44873 12.314 9.44873H10.0747C10.0138 9.44876 9.95329 9.46057 9.89697 9.48389C9.84047 9.50734 9.7888 9.54213 9.74561 9.58545C9.70241 9.62877 9.66831 9.68025 9.64502 9.73682C9.62173 9.79339 9.60968 9.85435 9.60986 9.91553V19.0337C9.60968 19.0949 9.62173 19.1558 9.64502 19.2124C9.66831 19.2689 9.70247 19.3205 9.74561 19.3638C9.78878 19.407 9.84052 19.4409 9.89697 19.4644C9.95336 19.4877 10.0137 19.5005 10.0747 19.5005H12.314C12.4365 19.4987 12.5532 19.4481 12.6392 19.3608C12.7251 19.2736 12.7739 19.1562 12.7739 19.0337V14.144C12.8312 13.4868 13.1214 12.0229 14.5464 12.0229C16.3858 12.023 16.2007 14.1617 16.2007 14.7944V19.0337C16.2005 19.095 16.2125 19.1557 16.2358 19.2124C16.2592 19.269 16.2932 19.3205 16.3364 19.3638C16.3797 19.4071 16.4312 19.442 16.4878 19.4653C16.5444 19.4887 16.6053 19.5006 16.6665 19.5005H18.9849C19.0461 19.5007 19.107 19.4887 19.1636 19.4653C19.2202 19.442 19.2716 19.4071 19.3149 19.3638C19.3583 19.3204 19.3931 19.2691 19.4165 19.2124C19.4398 19.1558 19.4518 19.0949 19.4517 19.0337V14.6597C19.4517 12.7588 19.4731 9.29757 15.7671 9.29736ZM6.6001 4.50049C6.19568 4.50055 5.80063 4.62055 5.46436 4.84521C5.12798 5.06997 4.86526 5.38943 4.71045 5.76318C4.55575 6.13685 4.51534 6.54817 4.59424 6.94482C4.67316 7.34143 4.86792 7.70571 5.15381 7.9917C5.43987 8.27776 5.80488 8.47332 6.20166 8.55225C6.59832 8.63106 7.00967 8.58982 7.3833 8.43506C7.75695 8.28023 8.07656 8.01842 8.30127 7.68213C8.52603 7.34576 8.646 6.94996 8.646 6.54541C8.64594 6.003 8.42994 5.48267 8.04639 5.09912C7.66281 4.71568 7.14247 4.50049 6.6001 4.50049Z" fill="#929292"/>
</svg>
